<?xml version="1.0" encoding="utf-8"?>
<?xml-stylesheet type="text/xsl" href="rss1.xsl"?>
<rss version="2.0" xmlns:atom="http://www.w3.org/2005/Atom" xmlns:content="http://purl.org/rss/1.0/modules/content/" xmlns:dc="http://purl.org/dc/elements/1.1/" xmlns:media="http://search.yahoo.com/mrss/">
<channel>
 <title>Getty</title>
 <link>http://www.gettyimg.com/</link>
 <atom:link href="http://www.gettyimg.com/" rel="self" type="application/rss+xml" />

 
                <item>
                <title><![CDATA[【Music Videos】Taylor Swift - I Can See You (Taylor’s Version) (From The Vault) [1080P AM WEB-DL DDP 5.1] - By RK✪]]></title>
                <link><![CDATA[https://sharemania.us/threads/taylor-swift-i-can-see-you-taylor%E2%80%99s-version-from-the-vault-1080p-am-web-dl-ddp-5-1-by-rk%E2%9C%AA.227527/]]></link>
                <description><![CDATA[<article>
<blockquote class="messageText SelectQuoteContainer ugc baseHtml">
<b>Taylor Swift - I Can See You (Taylor’s Version) (From The Vault) [1080P AM WEB-DL DDP 5.1] (Audio from Dolby Atmos Version of the Track) - By RK✪</b><br>
<br>
<b><i><span style="color: #0000ff">Hear The Difference!!</span></i></b><br>
<br>
<div class="bbCodeBlock bbCodeCode">
<div class="type">Code:</div>
<pre>MEDIA INFO:
Format                      : Matroska
Format version              : Version 4
File size                   : 297 MiB
Duration                    : 5 min 6 s
Overall bit rate            : 8 128 kb/s
Frame rate                  : 23.976 FPS
Movie name                  : Taylor Swift - I Can See You (Taylor’s Version) (From The Vault) - By RK✪
Encoded date                : 2023-09-02 07:23:14 UTC
Writing application         : mkvmerge v79.0 ('Funeral Pyres') 64-bit
Writing library             : libebml v1.4.4 + libmatroska v1.7.1
Cover                       : Yes
Attachments                 : cover.jpg
Video
ID                          : 1
Format                      : AVC
Format/Info                 : Advanced Video Codec
Format profile              : High@L4
Format settings             : CABAC / 5 Ref Frames
Format settings, CABAC      : Yes
Format settings, Reference  : 5 frames
Codec ID                    : V_MPEG4/ISO/AVC
Duration                    : 5 min 6 s
Bit rate                    : 6 830 kb/s
Width                       : 1 920 pixels
Height                      : 800 pixels
Display aspect ratio        : 2.40:1
Frame rate mode             : Constant
Frame rate                  : 23.976 (24000/1001) FPS
Color space                 : YUV
Chroma subsampling          : 4:2:0
Bit depth                   : 8 bits
Scan type                   : Progressive
Bits/(Pixel*Frame)          : 0.185
Stream size                 : 250 MiB (84%)
Title                       : - By RK✪
Language                    : English
Default                     : Yes
Forced                      : No
Color range                 : Limited
Color primaries             : BT.709
Transfer characteristics    : BT.709
Matrix coefficients         : BT.709
Audio #1
ID                          : 2
Format                      : E-AC-3
Format/Info                 : Enhanced AC-3
Commercial name             : Dolby Digital Plus
Codec ID                    : A_EAC3
Duration                    : 5 min 6 s
Bit rate mode               : Constant
Bit rate                    : 1 024 kb/s
Channel(s)                  : 6 channels
Channel layout              : L R C LFE Ls Rs
Sampling rate               : 48.0 kHz
Frame rate                  : 31.250 FPS (1536 SPF)
Compression mode            : Lossy
Delay relative to video     : -42 ms
Stream size                 : 37.4 MiB (13%)
Title                       : - By RK✪
Language                    : English
Service kind                : Complete Main
Default                     : Yes
Forced                      : No
Audio #2
ID                          : 3
Format                      : AAC LC
Format/Info                 : Advanced Audio Codec Low Complexity
Codec ID                    : A_AAC-2
Duration                    : 5 min 6 s
Bit rate                    : 265 kb/s
Channel(s)                  : 2 channels
Channel layout              : L R
Sampling rate               : 48.0 kHz
Frame rate                  : 46.875 FPS (1024 SPF)
Compression mode            : Lossy
Delay relative to video     : -42 ms
Stream size                 : 9.77 MiB (3%)
Title                       : - By RK✪
Language                    : English
Default                     : No
Forced                      : No
Text
ID                          : 4
Format                      : UTF-8
Codec ID                    : S_TEXT/UTF8
Codec ID/Info               : UTF-8 Plain Text
Duration                    : 4 min 58 s
Bit rate                    : 67 b/s
Frame rate                  : 0.291 FPS
Count of elements           : 87
Stream size                 : 2.47 KiB (0%)
Title                       : - By RK✪
Language                    : English
Default                     : Yes
Forced                      : No
</pre>
</div><b><span style="color: #ff0000">Password:</span></b><br>
<br>
<div class="bbCodeBlock bbCodeVfcHH HiddenContent">
<div class="attribution type">Hidden Content:</div>
<blockquote>You must reply before you can see the hidden data contained here.</blockquote>
</div><b><span style="color: #00ff00">Link:</span></b><br>
<br>
<div class="bbCodeBlock bbCodeVfcHH HiddenContent">
<div class="attribution type">Hidden Content:</div>
<blockquote>You must reply before you can see the hidden data contained here.</blockquote>
</div>
<div class="messageTextEndMarker">&nbsp;</div>
</blockquote>
</article>]]></description>
                <author><![CDATA[RK94]]></author>
                </item>

                
                <item>
                <title><![CDATA[【Music Videos】Selena Gomez - Single Soon [4k Master ProRes Rip HEVC WITH DDP 5.1 ATMOS] - By RK✪]]></title>
                <link><![CDATA[https://sharemania.us/threads/selena-gomez-single-soon-4k-master-prores-rip-hevc-with-ddp-5-1-atmos-by-rk%E2%9C%AA.227526/]]></link>
                <description><![CDATA[<article>
<blockquote class="messageText SelectQuoteContainer ugc baseHtml">
<b>Selena Gomez - Single Soon [4k Master ProRes Rip WITH HEVC DDP 5.1 ATMOS] - By RK✪</b><br>
<br>
<b><i><span style="color: #0000ff">Hear The Difference!!</span></i></b><br>
<br>
<div class="bbCodeBlock bbCodeCode">
<div class="type">Code:</div>
<pre>MEDIA INFO:
Format                      : Matroska
Format version              : Version 4
File size                   : 587 MiB
Duration                    : 2 min 52 s
Overall bit rate            : 28.5 Mb/s
Frame rate                  : 23.976 FPS
Movie name                  : Selena Gomez - Single Soon - By RK✪
Encoded date                : 2023-09-02 07:23:52 UTC
Writing application         : mkvmerge v79.0 ('Funeral Pyres') 64-bit
Writing library             : libebml v1.4.4 + libmatroska v1.7.1
Video
ID                          : 1
Format                      : HEVC
Format/Info                 : High Efficiency Video Coding
Format profile              : Main@L5@Main
Codec ID                    : V_MPEGH/ISO/HEVC
Duration                    : 2 min 52 s
Bit rate                    : 26.2 Mb/s
Width                       : 3 840 pixels
Height                      : 2 160 pixels
Display aspect ratio        : 16:9
Frame rate mode             : Constant
Frame rate                  : 23.976 (24000/1001) FPS
Color space                 : YUV
Chroma subsampling          : 4:2:0
Bit depth                   : 8 bits
Bits/(Pixel*Frame)          : 0.132
Stream size                 : 539 MiB (92%)
Title                       : - By RK✪
Default                     : Yes
Forced                      : No
Color range                 : Limited
Color primaries             : BT.709
Transfer characteristics    : BT.709
Matrix coefficients         : BT.709
Audio #1
ID                          : 2
Format                      : E-AC-3 JOC
Format/Info                 : Enhanced AC-3 with Joint Object Coding
Commercial name             : Dolby Digital Plus with Dolby Atmos
Codec ID                    : A_EAC3
Duration                    : 2 min 51 s
Bit rate mode               : Constant
Bit rate                    : 768 kb/s
Channel(s)                  : 6 channels
Channel layout              : L R C LFE Ls Rs
Sampling rate               : 48.0 kHz
Frame rate                  : 31.250 FPS (1536 SPF)
Compression mode            : Lossy
Stream size                 : 15.7 MiB (3%)
Title                       : - By RK✪
Language                    : English
Service kind                : Complete Main
Default                     : Yes
Forced                      : No
Complexity index            : 16
Number of dynamic objects   : 15
Bed channel count           : 1 channel
Bed channel configuration   : LFE
Audio #2
ID                          : 3
Format                      : PCM
Format settings             : Little / Signed
Codec ID                    : A_PCM/INT/LIT
Duration                    : 2 min 52 s
Bit rate mode               : Constant
Bit rate                    : 1 536 kb/s
Channel(s)                  : 2 channels
Sampling rate               : 48.0 kHz
Frame rate                  : 25.002 FPS (1920 SPF)
Bit depth                   : 16 bits
Stream size                 : 31.6 MiB (5%)
Title                       : - By RK✪
Language                    : English
Default                     : No
Forced                      : No
Text
ID                          : 4
Format                      : UTF-8
Codec ID                    : S_TEXT/UTF8
Codec ID/Info               : UTF-8 Plain Text
Duration                    : 2 min 50 s
Bit rate                    : 95 b/s
Frame rate                  : 0.376 FPS
Count of elements           : 64
Stream size                 : 1.98 KiB (0%)
Title                       : - By RK✪
Language                    : English
Default                     : Yes
Forced                      : No
</pre>
</div><b><span style="color: #ff0000">Password:</span></b><br>
<br>
<div class="bbCodeBlock bbCodeVfcHH HiddenContent">
<div class="attribution type">Hidden Content:</div>
<blockquote>You must reply before you can see the hidden data contained here.</blockquote>
</div><b><span style="color: #00b300">Link:</span></b><br>
<br>
<div class="bbCodeBlock bbCodeVfcHH HiddenContent">
<div class="attribution type">Hidden Content:</div>
<blockquote>You must reply before you can see the hidden data contained here.</blockquote>
</div>
<div class="messageTextEndMarker">&nbsp;</div>
</blockquote>
</article>]]></description>
                <author><![CDATA[RK94]]></author>
                </item>

                
                <item>
                <title><![CDATA[【Requests】[REQ VID] - Boyzone - Mystical experience cd single]]></title>
                <link><![CDATA[https://sharemania.us/threads/boyzone-mystical-experience-cd-single.227528/]]></link>
                <description><![CDATA[<article>
<blockquote class="messageText SelectQuoteContainer ugc baseHtml">
Im looking for Boyzone - Mystical experience cd single.<br>
<br>
<a href="https://www.todocoleccion.net/musica-cds/boyzone-mystical-experience-experiencia-religiosa-cd-single-promo-cantado-espanol-ronan-keating~x249451485" target="_blank" class="externalLink" rel="nofollow">https://www.todocoleccion.net/music...romo-cantado-espanol-ronan-keating~x249451485</a>
<div class="messageTextEndMarker">&nbsp;</div>
</blockquote>
</article>]]></description>
                <author><![CDATA[logrono]]></author>
                </item>

                </channel></rss>